# Blender 3.3.1
# www.blender.org
mtllib everness_cave_flower.mtl
o Cube
v 0.000000 -0.499000 0.000000
v -0.500000 -0.499000 0.500000
v 0.500000 -0.229136 -0.500000
v 0.500000 -0.499000 0.500000
v -0.500000 -0.229136 -0.500000
v -0.500000 -0.499000 -0.500000
v 0.500000 -0.229136 0.500000
v 0.500000 -0.499000 -0.500000
v -0.500000 -0.229136 0.500000
vn -0.0000 1.0000 -0.0000
vn -0.0000 0.8800 -0.4750
vn 0.4750 0.8800 -0.0000
vn -0.0000 0.8800 0.4750
vn -0.4750 0.8800 -0.0000
vt 0.250000 1.000000
vt 1.000000 1.000000
vt -0.000000 0.187500
vt 0.500000 0.187500
vt 0.500000 1.000000
vt -0.000000 0.187500
vt 0.500000 0.187500
vt 1.000000 -0.000000
vt 0.500000 0.187500
vt -0.000000 0.187500
vt 0.500000 -0.000000
vt -0.000000 0.187500
vt 0.500000 0.187500
s 0
usemtl flower
f 8/11/1 6/8/1 2/2/1 4/5/1
f 9/12/2 7/9/2 1/1/2
f 5/6/3 9/13/3 1/1/3
f 3/3/4 5/7/4 1/1/4
f 7/10/5 3/4/5 1/1/5
