# Blender v2.83.20 OBJ File: 'everness_lumabus.blend'
# www.blender.org
mtllib everness_lumabus.mtl
o Cube
v 0.312500 -0.499500 0.312500
v 0.312500 0.125500 0.312500
v 0.312500 -0.499500 -0.312500
v 0.312500 0.125500 -0.312500
v -0.312500 -0.499500 0.312500
v -0.312500 0.125500 0.312500
v -0.312500 -0.499500 -0.312500
v -0.312500 0.125500 -0.312500
v 0.312500 -0.499828 0.312500
v 0.791278 -0.098086 0.312500
v 0.312500 -0.499828 -0.312500
v 0.312500 -0.098086 -0.791278
v -0.312500 -0.499828 0.312500
v -0.312500 -0.098086 0.791278
v -0.312500 -0.499828 -0.312500
v -0.312500 -0.098086 -0.791278
v -0.791278 -0.098086 -0.312500
v 0.791278 -0.098086 -0.312500
v 0.312500 -0.098086 0.791278
v -0.791278 -0.098086 0.312500
vt 0.750000 0.500000
vt 0.250000 0.500000
vt 0.250000 0.000000
vt 0.750000 0.000000
vt 0.750000 0.500000
vt 0.750000 1.000000
vt 0.250000 1.000000
vt 0.250000 0.500000
vt 0.750000 1.000000
vt 0.750000 0.500000
vt 0.250000 0.500000
vt 0.750000 0.500000
vt 0.750000 0.000000
vt 0.250000 0.000000
vt 0.750000 1.000000
vt 0.250000 1.000000
vt 0.250000 0.500000
vt 0.250000 1.000000
vt 0.681818 0.681818
vt 0.318182 0.681818
vt 0.318182 0.318182
vt 0.681818 0.318182
vt 0.681818 -0.000000
vt 0.681818 0.363636
vt 0.318182 0.363636
vt 0.318182 -0.000000
vt -0.000000 0.318182
vt 0.363636 0.318182
vt 0.363636 0.681818
vt -0.000000 0.681818
vt 1.000000 0.681818
vt 0.636364 0.681818
vt 0.636364 0.318182
vt 1.000000 0.318182
vt 0.318182 1.000000
vt 0.318182 0.636364
vt 0.681818 0.636364
vt 0.681818 1.000000
vn 0.0000 -1.0000 -0.0000
vn 0.0000 0.0000 -1.0000
vn -1.0000 -0.0000 0.0000
vn 0.0000 1.0000 0.0000
vn 1.0000 0.0000 0.0000
vn 0.0000 -0.0000 1.0000
vn 0.0000 -0.7660 -0.6428
vn -0.6428 -0.7660 -0.0000
vn 0.6428 -0.7660 -0.0000
vn 0.0000 -0.7660 0.6428
g Cube_Cube_bulb
usemtl bulb
s off
f 1/1/1 5/2/1 7/3/1 3/4/1
f 4/5/2 3/6/2 7/7/2 8/8/2
f 8/8/3 7/7/3 5/9/3 6/10/3
f 6/11/4 2/12/4 4/13/4 8/14/4
f 2/12/5 1/15/5 3/16/5 4/17/5
f 6/11/6 5/18/6 1/15/6 2/12/6
g Cube_Cube_leaves
usemtl leaves
f 9/19/1 13/20/1 15/21/1 11/22/1
f 12/23/7 11/24/7 15/25/7 16/26/7
f 17/27/8 15/28/8 13/29/8 20/30/8
f 10/31/9 9/32/9 11/33/9 18/34/9
f 14/35/10 13/36/10 9/37/10 19/38/10
