# Blender v2.83.20 OBJ File: 'everness_venus_trap.blend'
# www.blender.org
mtllib everness_venus_trap.mtl
o Plane
v -0.625000 -0.499000 0.625000
v 0.625000 -0.499000 0.625000
v -0.625000 -0.499000 -0.625000
v 0.625000 -0.499000 -0.625000
v 0.000000 -0.499000 0.000000
v -0.625000 -0.405250 0.000000
v 0.000000 -0.405250 0.625000
v 0.625000 -0.405250 0.000000
v 0.000000 -0.405250 -0.625000
vt 0.875000 0.125000
vt 0.875000 0.312500
vt 0.687500 0.312500
vt 0.687500 0.125000
vt 0.875000 0.500000
vt 0.687500 0.500000
vt 0.500000 0.500000
vt 0.500000 0.312500
vt 0.500000 0.125000
vn -0.1467 0.9782 0.1467
vn 0.1467 0.9782 -0.1467
vn -0.1467 0.9782 -0.1467
vn 0.1467 0.9782 0.1467
usemtl flower
s off
f 2/1/1 8/2/1 5/3/1
f 7/4/2 2/1/2 5/3/2
f 8/2/3 4/5/3 5/3/3
f 9/6/1 3/7/1 5/3/1
f 6/8/4 1/9/4 5/3/4
f 3/7/2 6/8/2 5/3/2
f 4/5/4 9/6/4 5/3/4
f 1/9/3 7/4/3 5/3/3
o Cube_Cube.001
v 0.071372 -0.499000 0.442448
v -0.214282 0.200707 0.728103
v -0.442448 -0.499000 -0.071372
v -0.728103 0.200707 0.214282
v -0.674071 0.244824 0.160250
v -0.542565 0.352199 0.028744
v -0.160250 0.244824 0.674071
v -0.028744 0.352199 0.542565
v 0.125404 -0.454883 0.388416
v -0.388416 -0.454883 -0.125404
v -0.071372 -0.499000 -0.442448
v 0.214282 0.200707 -0.728103
v 0.442448 -0.499000 0.071372
v 0.728103 0.200707 -0.214282
v 0.674071 0.244824 -0.160250
v 0.542565 0.352199 -0.028744
v -0.256910 -0.347509 -0.256910
v 0.388416 -0.454883 0.125404
v 0.028744 0.352199 -0.542565
v 0.256910 -0.347509 0.256910
v 0.160250 0.244824 -0.674070
v -0.125404 -0.454883 -0.388416
vt 0.265625 0.187500
vt 0.265625 0.500000
vt 0.000000 0.500000
vt 0.000000 0.187500
vt 0.375000 0.687500
vt 0.375000 1.000000
vt 0.281250 1.000000
vt 0.281250 0.687500
vt 0.000000 0.890625
vt 0.000000 0.968750
vt 0.250000 0.968750
vt 0.250000 0.890625
vt 0.250000 1.000000
vt 0.250000 0.687500
vt 0.000000 1.000000
vt 0.281250 1.000000
vt 0.281250 0.687500
vt 0.375000 0.687500
vt 0.375000 1.000000
vt 0.765625 0.687500
vt 0.765625 1.000000
vt 0.500000 1.000000
vt 0.500000 0.687500
vt 0.000000 0.890625
vt 0.000000 0.859375
vt 0.250000 0.859375
vt 0.250000 0.890625
vt 0.250000 1.000000
vt 0.250000 0.687500
vt 0.000000 0.781250
vt 0.250000 0.781250
vt -0.000000 0.500000
vt -0.000000 0.187500
vt 0.265625 0.187500
vt 0.265625 0.500000
vt 0.375000 0.687500
vt 0.281250 0.687500
vt 0.281250 1.000000
vt 0.250000 0.890625
vt 0.250000 0.968750
vt 0.000000 0.968750
vt 0.000000 0.890625
vt 0.250000 0.687500
vt 0.250000 1.000000
vt 0.250000 1.000000
vt 0.000000 1.000000
vt 0.281250 0.687500
vt 0.281250 1.000000
vt 0.375000 1.000000
vt 0.765625 0.687500
vt 0.765625 1.000000
vt 0.500000 1.000000
vt 0.500000 0.687500
vt 0.000000 0.890625
vt 0.000000 0.859375
vt 0.250000 0.859375
vt 0.250000 0.890625
vt 0.250000 0.687500
vt 0.000000 0.781250
vt 0.250000 0.781250
vn -0.6124 -0.5000 0.6124
vn 0.7071 0.0000 0.7071
vn -0.3536 0.8660 0.3536
vn -0.7071 0.0000 -0.7071
vn 0.3536 -0.8660 -0.3536
vn 0.6124 -0.5000 -0.6124
vn 0.3536 0.8660 -0.3536
vn -0.3536 -0.8660 0.3536
usemtl flower
s off
f 10/10/5 11/11/5 13/12/5 12/13/5
f 29/14/6 17/15/6 16/16/6 18/17/6
f 15/18/7 14/19/7 16/20/7 17/21/7
f 18/17/6 16/16/6 11/22/6 10/23/6
f 14/19/7 13/24/7 11/22/7 16/20/7
f 19/25/8 14/26/8 15/27/8 26/28/8
f 18/29/5 16/30/5 14/31/5 19/32/5
f 12/33/9 19/34/9 18/35/9 10/36/9
f 12/37/8 13/38/8 14/26/8 19/25/8
f 19/34/9 26/39/9 29/40/9 18/35/9
f 20/41/10 21/42/10 23/43/10 22/44/10
f 26/28/8 28/45/8 30/46/8 31/47/8
f 25/48/11 24/49/11 30/50/11 28/51/11
f 31/47/8 30/46/8 21/52/8 20/53/8
f 24/49/11 23/54/11 21/55/11 30/50/11
f 27/56/6 24/57/6 25/58/6 29/14/6
f 31/59/10 30/60/10 24/61/10 27/62/10
f 22/63/12 27/64/12 31/65/12 20/66/12
f 22/67/6 23/54/6 24/57/6 27/56/6
f 27/64/12 29/68/12 26/69/12 31/65/12
